Coordinates
version=1
nRows=5
nColumns=63
inDegrees=yes

Units are S.I. units (second, meters, Newtons, ...)
If the header above contains a line with 'inDegrees', this indicates whether rotational values are in degrees (yes) or radians (no).

endheader
time	pelvis_tilt	pelvis_list	pelvis_rotation	pelvis_tx	pelvis_ty	pelvis_tz	hip_flexion_r	hip_adduction_r	hip_rotation_r	knee_angle_r	knee_angle_r_beta	ankle_angle_r	subtalar_angle_r	mtp_angle_r	hip_flexion_l	hip_adduction_l	hip_rotation_l	knee_angle_l	knee_angle_l_beta	ankle_angle_l	subtalar_angle_l	mtp_angle_l	L5_S1_Flex_Ext	L5_S1_Lat_Bending	L5_S1_axial_rotation	L4_L5_Flex_Ext	L4_L5_Lat_Bending	L4_L5_axial_rotation	L3_L4_Flex_Ext	L3_L4_Lat_Bending	L3_L4_axial_rotation	L2_L3_Flex_Ext	L2_L3_Lat_Bending	L2_L3_axial_rotation	L1_L2_Flex_Ext	L1_L2_Lat_Bending	L1_L2_axial_rotation	L1_T12_Flex_Ext	L1_T12_Lat_Bending	L1_T12_axial_rotation	Abs_r3	Abs_r2	Abs_r1	Abs_t1	Abs_t2	neck_flexion	neck_bending	neck_rotation	arm_flex_r	arm_add_r	arm_rot_r	elbow_flex_r	pro_sup_r	wrist_flex_r	wrist_dev_r	arm_flex_l	arm_add_l	arm_rot_l	elbow_flex_l	pro_sup_l	wrist_flex_l	wrist_dev_l
      0.00000000	      6.68112964	     -4.96765576	     90.26042160	      0.30900108	      1.05039740	      0.39590721	      1.15929451	      1.12885277	    -12.47253849	      9.73830385	      0.16996547	     28.78499973	     15.79521408	      0.00000000	      2.30178903	     -0.67478792	     -3.98010673	     11.61320146	      0.20268860	     25.02891077	      0.05403206	      0.00000000	      0.07528882	      0.08291028	      0.94725699	      0.13981888	      0.11027067	      1.00646055	      0.12369201	      0.20158805	      1.00646055	      0.08604760	      0.20158805	      0.82884987	      0.06991320	      0.16907063	      0.76964630	      0.04302003	      0.12842802	      0.71044274	      0.53778055	      0.93789763	      5.26835920	      0.00000000	      0.00000000	     23.75405052	     -6.88192559	    -11.06970349	      2.64052630	     -9.84571161	     38.18842321	     55.89062353	     38.04790490	      7.75081522	     20.18778175	     15.63346667	     -9.93116447	     69.69599300	     54.07339903	     77.56321362	     -7.44511637	      2.49592558
      0.01666667	      6.54789802	     -4.92041628	     90.46655761	      0.30853565	      1.05057801	      0.39528476	      0.99539605	      0.94147786	    -12.64777557	      9.59361758	      0.16744021	     28.65700417	     15.98599608	      0.00000000	      2.44156577	     -0.64271059	     -4.59282198	     12.08597519	      0.21094006	     25.18918671	      1.26177879	      0.00000000	      0.09030042	      0.06644924	      0.91655953	      0.16769690	      0.08837749	      0.97384450	      0.14835455	      0.16156467	      0.97384450	      0.10320435	      0.16156467	      0.80198959	      0.08385297	      0.13550328	      0.74470462	      0.05159766	      0.10292987	      0.68741965	      0.64500685	      0.75168706	      5.09762913	      0.00000000	      0.00000000	     23.32656477	     -6.69903673	    -10.89386369	      2.44399738	     -9.88189824	     38.32098658	     56.38063748	     33.28319215	      5.94902655	     21.48574794	     15.41568274	    -10.01574256	     69.21177875	     54.31085275	     77.88339758	     -8.34099239	      2.63848954
      0.03333333	      6.41847932	     -4.83078155	     90.60134894	      0.30822762	      1.05083307	      0.39459758	      0.78130777	      0.75856154	    -12.88616966	      9.46689741	      0.16522853	     28.55263060	     16.31767995	      0.00000000	      2.43150964	     -0.54274380	     -4.64246431	     12.35390118	      0.21561625	     25.27038738	      1.58260556	      0.00000000	      0.09915127	      0.05000830	      0.90685723	      0.18413382	      0.06651104	      0.96353581	      0.16289562	      0.12159018	      0.96353581	      0.11331998	      0.12159018	      0.79350008	      0.09207187	      0.10197692	      0.73682150	      0.05665503	      0.07746285	      0.68014292	      0.70822759	      0.56570387	      5.04366785	      0.00000000	      0.00000000	     23.03343900	     -6.42314637	    -10.62867088	      2.24369653	     -9.77410044	     38.17799575	     56.39228543	     30.63404313	      5.74231469	     21.92329662	     15.60457333	    -10.15525997	     70.05003597	     54.39407239	     74.56689565	     -9.52701382	      1.81094993
      0.05000000	      6.38431105	     -4.75711666	     90.91860983	      0.30784324	      1.05094260	      0.39398551	      0.53582161	      0.72308646	    -13.06681305	      9.25795245	      0.16158175	     28.45481028	     16.29329475	      0.00000000	      2.50970397	     -0.68676217	     -5.73034718	     12.76949404	      0.22286971	     25.85240486	      3.54158463	      0.00000000	      0.10657272	      0.04287678	      0.82717285	      0.19791620	      0.05702611	      0.87887115	      0.17508832	      0.10425060	      0.87887115	      0.12180196	      0.10425060	      0.72377624	      0.09896343	      0.08743433	      0.67207794	      0.06089565	      0.06641613	      0.62037964	      0.76123829	      0.48503069	      4.60048724	      0.00000000	      0.00000000	     22.87042626	     -6.20191838	    -10.34321533	      2.22604765	     -9.84471909	     38.84564412	     56.87026592	     27.07504010	      3.42586519	     21.88342717	     15.34910965	    -10.34577828	     69.42373451	     54.71665192	     74.02962036	     -9.18125015	      2.22030378
      0.06666667	      6.32668438	     -4.69852863	     90.91501049	      0.30783386	      1.05110405	      0.39333578	      0.30136415	      0.73525597	    -12.16058187	      8.96421317	      0.15645503	     28.19546244	     15.26230038	      0.00000000	      2.43522336	     -0.63971032	     -5.70536734	     12.85599533	      0.22437945	     26.05008021	      3.51814654	      0.00000000	      0.11194544	      0.03412917	      0.83008860	      0.20789388	      0.04539180	      0.88196914	      0.18391517	      0.08298167	      0.88196914	      0.12794245	      0.08298167	      0.72632753	      0.10395254	      0.06959621	      0.67444699	      0.06396563	      0.05286609	      0.62256645	      0.79961510	      0.38607603	      4.61670378	      0.00000000	      0.00000000	     22.89354573	     -6.05795394	    -10.24672436	      2.10514875	     -9.79107520	     38.92434779	     56.84406622	     27.42055671	      3.55221326	     21.09358361	     15.36258428	    -10.48173768	     69.58511224	     54.89010151	     72.35141401	     -9.13028920	      2.14797575
